<svg width="70" height="71" viewBox="0 0 70 71" fill="none" xmlns="http://www.w3.org/2000/svg">
<g clip-path="url(#clip0_211_1307)">
<mask id="mask0_211_1307" style="mask-type:luminance" maskUnits="userSpaceOnUse" x="8" y="19" width="54" height="33">
<path d="M8 19H62V51.4H8V19Z" fill="white"/>
</mask>
<g mask="url(#mask0_211_1307)">
<path fill-rule="evenodd" clip-rule="evenodd" d="M35 19C27.8 19 23.3 22.6 21.5 29.8C24.2 26.2 27.35 24.85 30.95 25.75C33.004 26.263 34.472 27.754 36.097 29.403C38.744 32.09 41.808 35.2 48.5 35.2C55.7 35.2 60.2 31.6 62 24.4C59.3 28 56.15 29.35 52.55 28.45C50.496 27.937 49.028 26.446 47.403 24.797C44.756 22.11 41.692 19 35 19ZM21.5 35.2C14.3 35.2 9.8 38.8 8 46C10.7 42.4 13.85 41.05 17.45 41.95C19.504 42.464 20.972 43.954 22.597 45.603C25.244 48.29 28.308 51.4 35 51.4C42.2 51.4 46.7 47.8 48.5 40.6C45.8 44.2 42.65 45.55 39.05 44.65C36.996 44.137 35.528 42.646 33.903 40.997C31.256 38.31 28.192 35.2 21.5 35.2Z" fill="#38BDF8"/>
</g>
</g>
<defs>
<clipPath id="clip0_211_1307">
<rect width="54" height="33" fill="white" transform="translate(8 19)"/>
</clipPath>
</defs>
</svg>
